<svg width="300" height="230" viewBox="0 0 300 230" fill="none" xmlns="http://www.w3.org/2000/svg">
<g clip-path="url(#clip0_120_591)">
<path d="M75.7718 3.59787C54.6591 15.7178 37.0141 34.0445 25.6914 55.9347C20.0205 66.8798 14.158 80.1157 16.6678 92.7643C18.9668 104.316 28.6993 110.993 39.1216 114.126C51.498 117.846 65.0431 117.337 77.7643 116.358C92.6697 115.203 107.422 112.559 122.27 110.719C129.377 109.838 136.6 108.918 143.765 109.016C149.532 109.074 155.433 110.327 159.131 115.261C165.836 124.17 161.104 137.543 156.295 146.119C149.532 158.22 140.144 168.558 130.201 177.976C120.258 187.394 109.759 195.656 98.4364 202.94C76.7681 216.9 48.8733 230.88 22.7602 222.539C17.3 220.797 11.6483 217.586 9.19596 212.025C6.74367 206.464 7.85486 200.767 10.3838 195.715C16.0739 184.319 27.6265 176.918 38.4319 171.299C50.3676 165.112 63.223 161 76.1933 157.769C89.1636 154.539 102.172 152.248 115.353 150.779C168.729 144.847 223.35 153.266 272.779 174.569C278.948 177.232 285.04 180.09 291.056 183.106C292.665 183.908 295.041 183.301 296.478 182.381C297.532 181.696 298.777 180.188 297.149 179.327C272.472 166.365 245.919 157.104 218.771 151.347C191.623 145.591 163.23 143.3 135.297 144.788C107.364 146.276 79.3736 150.975 53.0498 160.413C39.9071 165.131 27.2624 171.475 16.208 180.188C7.52917 187.021 -2.08841 198.75 0.402197 210.831C3.12271 224.086 18.8519 228.041 30.0979 229.118C44.2561 230.45 58.5292 227.082 71.6528 221.893C97.7083 211.614 121.771 194.227 141.524 174.216C151.084 164.524 160.318 153.755 166.066 141.185C170.319 131.904 172.848 118.492 164.763 110.484C160.184 105.961 153.594 104.728 147.463 104.571C140.183 104.395 132.807 105.276 125.584 106.118C110.276 107.919 95.0645 110.739 79.6993 112.011C66.9206 113.069 52.7241 113.734 40.5393 108.878C35.5198 106.881 30.8643 103.886 27.6456 99.3823C23.7181 93.8999 22.8943 86.9099 23.8139 80.3115C25.634 67.291 32.3969 54.662 39.5431 43.9323C46.6892 33.2025 55.1956 23.9609 65.0239 16.0506C69.8135 12.1934 74.9289 8.78652 80.2358 5.73207C81.347 5.08593 82.2283 3.71535 80.868 2.85384C79.5077 1.99233 77.0555 2.81468 75.7718 3.53913V3.59787Z" fill="#170F49"/>
</g>
<defs>
<clipPath id="clip0_120_591">
<rect width="300" height="229.412" fill="white"/>
</clipPath>
</defs>
</svg>
