<svg width="422" height="43" viewBox="0 0 422 43" fill="none" xmlns="http://www.w3.org/2000/svg">
<g clip-path="url(#clip0_385_173)">
<path d="M11.0061 22.3764C29.0639 14.1719 49.9606 4.47927 81.6861 2.47527C115.49 0.342292 139.957 10.2829 159.42 18.1105C178.882 25.938 199.633 34.9659 228.49 39.7974C242.07 42.0692 257.025 43.2597 272.186 42.9522C289.336 42.605 305.638 40.4323 321.032 37.962C356.153 32.3369 389.576 25.5412 420.892 17.7632C422.648 17.3267 422.209 16.6819 420.336 16.4438C418.111 16.166 414.629 16.4041 412.756 16.8604C384.571 23.7554 354.777 29.8964 323.579 35.0949C308.535 37.5949 292.76 40.2041 275.815 40.6605C260.684 41.0672 245.757 39.4005 232.675 36.9203C203.876 31.444 184.677 22.0986 163.254 13.8842C152.776 9.85635 141.537 5.81858 127.84 3.04075C114.143 0.262926 98.544 -0.570423 83.0617 0.372055C45.8047 2.634 21.8642 12.5747 0.469927 22.2971C-1.16903 23.0312 1.87475 23.3983 3.54297 23.428C6.11848 23.4776 9.42566 23.1006 11.0061 22.3863V22.3764Z" fill="#170F49"/>
</g>
<defs>
<clipPath id="clip0_385_173">
<rect width="422" height="43" fill="white"/>
</clipPath>
</defs>
</svg>
