<svg width="50" height="50" viewBox="0 0 50 50" fill="none" xmlns="http://www.w3.org/2000/svg">
<circle opacity="0.4" cx="25" cy="25" r="25" fill="#79DD97"/>
<circle opacity="0.5" cx="25.0002" cy="25.0002" r="18.4211" fill="#79DD97"/>
<g clip-path="url(#clip0_357_194)">
<path d="M27.2063 19.5775C27.9338 18.9933 28.683 18.2083 29.063 17.2533C29.2613 16.755 29.1972 16.1892 28.8922 15.74C28.578 15.2767 28.0572 15 27.4997 15H22.4997C21.9422 15 21.4213 15.2767 21.1072 15.74C20.8022 16.1892 20.7388 16.755 20.9363 17.2533C21.3163 18.2075 22.0655 18.9933 22.793 19.5775C18.913 21.0175 15.833 25.9658 15.833 30C15.833 32.7575 18.0755 35 20.833 35H29.1663C31.9238 35 34.1663 32.7575 34.1663 30C34.1663 25.9658 31.0863 21.0175 27.2063 19.5775ZM27.5138 16.6375C27.0838 17.7183 25.7688 18.6317 24.998 19.0625C24.2288 18.635 22.9188 17.7292 22.4988 16.6667L27.5138 16.6375ZM29.1655 33.3333H20.833C18.9947 33.3333 17.4997 31.8383 17.4997 30C17.4997 25.6308 21.4247 20.8333 24.9997 20.8333C28.5747 20.8333 32.4997 25.6308 32.4997 30C32.4997 31.8383 31.0038 33.3333 29.1655 33.3333ZM24.9988 33.3333C24.5388 33.3333 24.1655 32.96 24.1655 32.5V31.6667H23.9422C23.0522 31.6667 22.223 31.1883 21.7772 30.4175C21.5472 30.0192 21.683 29.51 22.0813 29.2792C22.478 29.0483 22.9888 29.1842 23.2197 29.5833C23.368 29.84 23.6455 30 23.9422 30H25.8322C26.2913 30 26.6655 29.6258 26.6655 29.1667C26.6655 28.8517 26.4397 28.585 26.1288 28.5333L23.5938 28.1108C22.4763 27.925 21.6647 26.9667 21.6647 25.8333C21.6647 24.455 22.7863 23.3333 24.1647 23.3333V22.5C24.1647 22.04 24.538 21.6667 24.998 21.6667C25.458 21.6667 25.8313 22.04 25.8313 22.5V23.3333H26.0547C26.9438 23.3333 27.7738 23.8125 28.2197 24.5833C28.4497 24.9817 28.3138 25.4908 27.9155 25.7217C27.518 25.9525 27.008 25.8167 26.7772 25.4175C26.628 25.16 26.3513 25.0008 26.0547 25.0008H24.1647C23.7055 25.0008 23.3313 25.375 23.3313 25.8342C23.3313 26.1492 23.5572 26.4158 23.868 26.4675L26.403 26.89C27.5205 27.0758 28.3322 28.0342 28.3322 29.1675C28.3322 30.5458 27.2105 31.6675 25.8322 31.6675V32.5008C25.8322 32.9608 25.4588 33.3333 24.9988 33.3333Z" fill="#170F49"/>
</g>
<defs>
<clipPath id="clip0_357_194">
<rect width="20" height="20" fill="white" transform="translate(15 15)"/>
</clipPath>
</defs>
</svg>
