<svg width="50" height="50" viewBox="0 0 50 50" fill="none" xmlns="http://www.w3.org/2000/svg">
<circle opacity="0.4" cx="25" cy="25" r="25" fill="#79DD97"/>
<circle opacity="0.5" cx="25.0002" cy="25.0002" r="18.4211" fill="#79DD97"/>
<g clip-path="url(#clip0_358_232)">
<path d="M33.9717 18.8049C33.6672 18.6781 33.3318 18.6448 33.0083 18.7092C32.6847 18.7736 32.3877 18.9328 32.155 19.1666L30 21.3216L26.1783 17.4999C25.8658 17.1875 25.4419 17.012 25 17.012C24.5581 17.012 24.1342 17.1875 23.8217 17.4999L20 21.3216L17.845 19.1666C17.6119 18.9336 17.315 18.7749 16.9917 18.7106C16.6685 18.6464 16.3334 18.6794 16.0289 18.8055C15.7244 18.9316 15.4641 19.1452 15.281 19.4192C15.0979 19.6932 15.0001 20.0154 15 20.3449V29.1666C15.0013 30.2713 15.4407 31.3303 16.2218 32.1114C17.003 32.8925 18.062 33.332 19.1667 33.3333H30.8333C31.938 33.332 32.997 32.8925 33.7782 32.1114C34.5593 31.3303 34.9987 30.2713 35 29.1666V20.3449C35.0001 20.0153 34.9024 19.6931 34.7194 19.419C34.5364 19.1449 34.2761 18.9312 33.9717 18.8049ZM33.3333 29.1666C33.3333 29.8296 33.0699 30.4655 32.6011 30.9344C32.1323 31.4032 31.4964 31.6666 30.8333 31.6666H19.1667C18.5036 31.6666 17.8677 31.4032 17.3989 30.9344C16.9301 30.4655 16.6667 29.8296 16.6667 29.1666V20.3449L19.4108 23.0891C19.5671 23.2453 19.779 23.3331 20 23.3331C20.221 23.3331 20.4329 23.2453 20.5892 23.0891L25 18.6783L29.4108 23.0891C29.5671 23.2453 29.779 23.3331 30 23.3331C30.221 23.3331 30.4329 23.2453 30.5892 23.0891L33.3333 20.3449V29.1666Z" fill="#170F49"/>
</g>
<defs>
<clipPath id="clip0_358_232">
<rect width="20" height="20" fill="white" transform="translate(15 15)"/>
</clipPath>
</defs>
</svg>
