<svg width="836" height="317" viewBox="0 0 836 317" fill="none" xmlns="http://www.w3.org/2000/svg">
<path d="M15.2421 176.154C27.2474 139.885 39.6732 102.789 62.7867 70.9195C81.9566 44.3676 121.374 5.77694 160.17 24.5624C177.408 32.8929 188.156 49.4636 195.989 65.0471C204.807 82.5525 211.741 100.827 218.448 119.058C232.128 156.228 244.107 194.211 263.34 229.489C272.709 246.709 283.728 263.615 297.468 278.307C311.209 292.999 327.636 304.395 348.282 306.198C393.686 310.179 421.912 266.398 441.17 235.858C463.407 200.489 480.277 162.61 501.012 126.56C511.217 108.803 522.199 91.0961 535.63 75.1609C547.533 61.079 562.659 49.0264 583.467 52.8249C626.496 60.6865 649.145 101.444 688.536 115.998C730.659 131.578 773.667 111.849 806.296 87.8944C814.637 81.7935 822.527 75.189 830.28 68.4999C833.096 66.0788 832.3 63.5356 828.607 62.6231C824.639 61.666 818.726 63.0979 815.727 65.6001C787.72 89.1063 749.238 121.557 707.628 109.307C687.62 103.398 671.675 89.6795 656.356 77.2145C640.176 64.0754 623.03 51.4661 601.971 45.5457C580.912 39.6254 558.197 43.0778 540.331 54.7684C522.465 66.4589 511.498 82.7947 500.809 98.8427C477.386 133.95 460.24 172.033 440.001 208.671C430.069 226.638 419.362 244.307 406.838 260.916C396.725 274.353 382.702 294.312 363.287 297.011C343.872 299.709 324.071 283.207 312.415 270.242C298.68 255.01 287.62 237.771 278.348 220.011C259.758 184.45 247.962 146.427 234.008 109.254C227.075 90.8128 220.007 72.1213 210.32 54.731C201.977 39.7653 190.889 25.1023 174.15 17.1096C134.214 -2.02054 88.9417 24.166 62.9554 51.1012C35.5814 79.5173 19.9668 115.54 7.42098 151.055C4.26144 159.955 1.28387 168.939 -1.69371 177.924C-3.48976 183.348 13.494 181.371 15.2416 176.196L15.2421 176.154Z" fill="#170F49"/>
</svg>
