<svg width="82" height="90" viewBox="0 0 82 90" fill="none" xmlns="http://www.w3.org/2000/svg">
<circle opacity="0.4" cx="44.5" cy="52.501" r="37.5" fill="#79DD97"/>
<circle opacity="0.5" cx="44.4998" cy="52.5015" r="27.6316" fill="#79DD97"/>
<g clip-path="url(#clip0_120_621)">
<path d="M57.259 38.1833C55.2778 33.3322 48.818 33.3152 44.5781 34.1982C41.6757 34.8039 38.923 36.1115 36.9252 38.3871C35.177 40.3796 34.1059 42.9099 33.4566 45.4798C31.9804 51.3329 32.1969 57.9445 35.3491 63.1975C38.1572 67.8845 43.0853 70.7601 48.5128 70.3129C51.5707 70.0639 54.5619 68.7223 56.6375 66.3901C58.9628 63.7749 60.278 60.237 60.7498 56.7784C60.8774 55.8444 58.5133 56.2633 58.4023 57.0784C57.7363 61.9409 55.2667 67.7317 50.0556 68.8185C45.4938 69.7695 41.0929 67.2222 38.4125 63.5768C35.1604 59.1615 34.4778 53.3707 35.2547 48.0328C35.9373 43.3345 37.7521 38.0927 42.3916 36.1398C46.1487 34.5605 53.0136 34.1643 54.9171 38.823C55.2556 39.6551 57.5754 38.9305 57.2646 38.1833H57.259Z" fill="white"/>
<path d="M31.5808 49.4366L41.5924 48.0102L46.5316 47.3082C48.2298 47.0648 49.9723 46.9177 51.6428 46.5327C51.9536 46.4591 52.5529 46.2044 52.614 45.8138C52.675 45.4233 52.2144 45.2931 51.9258 45.31C50.2776 45.4006 48.6238 45.7289 46.9866 45.961L41.9087 46.6856L31.8972 48.112C31.4754 48.1743 30.6485 48.4007 30.5597 48.9272C30.4709 49.4536 31.2534 49.4876 31.5753 49.4423L31.5808 49.4366Z" fill="white"/>
<path d="M30.4265 55.1708L54.079 51.0442C54.4508 50.9819 55.2333 50.7838 55.2999 50.3026C55.3665 49.8215 54.6839 49.7819 54.3731 49.8328L30.7206 53.9594C30.3488 54.0217 29.5663 54.2198 29.4997 54.7009C29.4331 55.1821 30.1157 55.2217 30.4265 55.1708Z" fill="white"/>
</g>
<g clip-path="url(#clip1_120_621)">
<path d="M6.96778 20.2552C6.10749 19.4359 5.25739 18.6027 4.42768 17.7414C4.02555 17.3287 3.63233 16.9095 3.23912 16.4904C2.8141 16.0266 2.40569 15.4636 1.86344 15.1373C1.40648 14.8646 1.09534 15.6449 1.04679 15.9352C0.940742 16.5693 1.03203 17.2442 1.35258 17.8161C1.67313 18.388 2.2051 18.8696 2.65048 19.3524C3.05642 19.7894 3.46364 20.2188 3.87849 20.6494C4.70948 21.503 5.55066 22.3426 6.41987 23.1554C6.948 23.66 7.39534 22.9574 7.47839 22.4608C7.59466 21.7657 7.51628 20.7788 6.96778 20.2552Z" fill="white"/>
<path d="M12.6644 13.2845C10.5855 10.2669 8.62387 7.15885 6.75773 3.99614C6.64706 3.81272 6.42563 3.58721 6.18623 3.61C5.94684 3.63278 5.77606 3.90262 5.69573 4.10122C5.42795 4.76319 5.55989 5.61765 5.89824 6.22395C7.71724 9.43374 9.684 12.5583 11.7743 15.6015C11.9003 15.7874 12.1102 16.0346 12.3738 16.008C12.6374 15.9814 12.8095 15.7039 12.8834 15.4964C13.1194 14.837 13.0754 13.8794 12.6721 13.2858L12.6644 13.2845Z" fill="white"/>
<path d="M18.8866 12.1892C18.7474 10.8152 18.6476 9.43997 18.5949 8.06475C18.5899 7.90686 18.5849 7.74897 18.5799 7.59107C18.5699 7.22817 18.5836 7.70949 18.5698 7.36951C18.5611 6.99897 18.5524 6.62843 18.5513 6.25917C18.5416 5.56648 18.5394 4.87507 18.5449 4.18494C18.5427 3.63486 18.4541 2.61489 17.8341 2.3777C17.2142 2.1405 17.0226 3.14504 17.0058 3.52703C16.8908 6.46832 17.0317 9.42885 17.328 12.3526C17.3698 12.8072 17.6111 13.8998 18.258 13.8352C18.9048 13.7707 18.931 12.6285 18.8854 12.1968L18.8866 12.1892Z" fill="white"/>
</g>
<defs>
<clipPath id="clip0_120_621">
<rect width="31.25" height="36.6072" fill="white" transform="translate(29.5 33.751)"/>
</clipPath>
<clipPath id="clip1_120_621">
<rect width="22.5" height="17.0861" fill="white" transform="translate(0 22.1917) rotate(-80.5049)"/>
</clipPath>
</defs>
</svg>
