<svg width="50" height="50" viewBox="0 0 50 50" fill="none" xmlns="http://www.w3.org/2000/svg">
<circle opacity="0.4" cx="25" cy="25" r="25" fill="#79DD97"/>
<circle opacity="0.5" cx="25.0002" cy="25.0002" r="18.4211" fill="#79DD97"/>
<g clip-path="url(#clip0_358_230)">
<path d="M19.1667 18.3333C19.1667 17.8733 19.54 17.5 20 17.5H21.6667V15.8333C21.6667 15.3733 22.04 15 22.5 15C22.96 15 23.3333 15.3733 23.3333 15.8333V17.5H25C25.46 17.5 25.8333 17.8733 25.8333 18.3333C25.8333 18.7933 25.46 19.1667 25 19.1667H23.3333V20.8333C23.3333 21.2933 22.96 21.6667 22.5 21.6667C22.04 21.6667 21.6667 21.2933 21.6667 20.8333V19.1667H20C19.54 19.1667 19.1667 18.7933 19.1667 18.3333ZM34.3633 25.8458L28.6925 32.21C27.1125 33.9833 24.845 35 22.4708 35H18.3333C16.495 35 15 33.505 15 31.6667V27.5C15 25.6617 16.495 24.1667 18.3333 24.1667H25.715C26.6642 24.1667 27.4967 24.6742 27.9558 25.4317L30.6358 22.4867C31.0875 21.9908 31.7042 21.7 32.3742 21.6692C33.0433 21.6317 33.685 21.8692 34.1808 22.3208C35.1925 23.2433 35.2742 24.8242 34.3633 25.845V25.8458ZM33.0583 23.5533C32.8925 23.4025 32.6758 23.3308 32.4517 23.335C32.2267 23.3458 32.02 23.4425 31.8683 23.6092L28.18 27.6625C27.8592 28.555 27.0642 29.2383 26.085 29.3783L21.7842 29.9925C21.33 30.0583 20.9067 29.7417 20.8417 29.2858C20.7767 28.83 21.0933 28.4083 21.5483 28.3433L25.8492 27.7292C26.315 27.6625 26.6667 27.2575 26.6667 26.7867C26.6667 26.2617 26.24 25.835 25.715 25.835H18.3333C17.4142 25.835 16.6667 26.5825 16.6667 27.5017V31.6683C16.6667 32.5875 17.4142 33.335 18.3333 33.335H22.4708C24.37 33.335 26.185 32.5217 27.4483 31.1033L33.1192 24.7383C33.425 24.395 33.3975 23.8642 33.0583 23.5542V23.5533Z" fill="#170F49"/>
</g>
<defs>
<clipPath id="clip0_358_230">
<rect width="20" height="20" fill="white" transform="translate(15 15)"/>
</clipPath>
</defs>
</svg>
