<svg width="50" height="50" viewBox="0 0 50 50" fill="none" xmlns="http://www.w3.org/2000/svg">
<circle opacity="0.4" cx="25" cy="25" r="25" fill="#79DD97"/>
<circle opacity="0.5" cx="25.0002" cy="25.0002" r="18.4211" fill="#79DD97"/>
<path d="M33.3336 22.9176C33.3336 25.4734 32.0877 27.8851 30.0019 29.3701C29.1694 29.9618 28.4727 30.8684 27.8086 32.2243C27.4269 33.0034 26.8327 33.6784 26.0911 34.1743C25.2711 34.7234 24.3044 34.9951 23.3386 34.9951C22.2836 34.9951 21.2294 34.6709 20.3644 34.0259C19.0702 33.0618 18.3336 31.5926 18.3427 29.9951C18.3452 29.5368 18.7177 29.1668 19.1761 29.1668H19.1811C19.6411 29.1693 20.0119 29.5451 20.0094 30.0051C20.0027 31.0668 20.4952 32.0459 21.3602 32.6901C22.4602 33.5093 24.0252 33.5509 25.1627 32.7893C25.6677 32.4509 26.0536 32.0143 26.3102 31.4909C27.1011 29.8759 27.9669 28.7709 29.0344 28.0118C30.6827 26.8401 31.6661 24.9359 31.6661 22.9176C31.6661 21.1409 30.9052 19.4418 29.5794 18.2559C28.2344 17.0551 26.5019 16.5068 24.6877 16.7084C21.9086 17.0209 19.6127 19.2551 19.2286 22.0209C19.1702 22.4418 19.1527 22.8676 19.1769 23.2851C19.2036 23.7443 18.8527 24.1384 18.3936 24.1651C17.9444 24.1926 17.5402 23.8401 17.5136 23.3809C17.4827 22.8551 17.5044 22.3201 17.5786 21.7909C18.0669 18.2834 20.9786 15.4493 24.5027 15.0526C26.7594 14.7959 29.0127 15.5143 30.6911 17.0134C32.3702 18.5143 33.3336 20.6668 33.3336 22.9176ZM25.4169 20.0009C27.0252 20.0009 28.3336 21.3093 28.3336 22.9176C28.3336 23.3776 28.7061 23.7509 29.1669 23.7509C29.6277 23.7509 30.0002 23.3776 30.0002 22.9176C30.0002 20.3901 27.9436 18.3343 25.4169 18.3343C23.0644 18.3343 21.0952 20.0859 20.8386 22.4084C20.8352 22.4384 20.8336 22.4693 20.8336 22.5001C20.8336 23.5818 21.6919 24.1668 22.5002 24.1676C22.9602 24.1676 23.3336 24.5418 23.3336 25.0009C23.3336 25.4601 22.9602 25.8343 22.5002 25.8343C22.0402 25.8343 21.6669 26.2076 21.6669 26.6676C21.6669 27.1276 22.0394 27.5009 22.5002 27.5009C23.8786 27.5009 25.0002 26.3793 25.0002 25.0009C25.0002 23.6226 23.8819 22.5043 22.5069 22.5001C22.7111 21.0693 23.9469 20.0009 25.4169 20.0009Z" fill="#170F49"/>
</svg>
