<svg width="400" height="166" viewBox="0 0 400 166" fill="none" xmlns="http://www.w3.org/2000/svg">
<g clip-path="url(#clip0_120_494)">
<path d="M0.318161 130.126C12.3188 147.799 32.0927 158.856 52.8666 163.274C77.2089 168.433 102.551 164.216 125.598 155.783C146.781 148.023 168.123 136.832 184.42 121.155C197.966 108.147 210.944 88.2085 206.398 68.6739C204.307 59.6803 197.648 52.638 187.897 52.3464C176.624 51.9876 165.941 59.456 160.85 69.0776C150.372 88.9037 157.804 113.081 173.987 127.524C190.874 142.618 214.649 148.36 236.991 147.283C261.56 146.095 285.221 137.527 305.858 124.564C326.496 111.601 343.883 94.8695 360.066 77.1067C376.249 59.3439 391.431 41.2222 397.568 18.5701C399.023 13.2099 399.818 7.7375 399.932 2.19783C400.023 -1.70461 390.386 0.246607 390.318 3.3865C389.818 25.0518 378.431 44.0705 365.157 60.6447C351.656 77.488 336.428 93.5014 319.723 107.317C303.108 121.088 284.221 132.526 263.151 138.222C242.786 143.74 220.444 143.762 200.92 135.217C182.556 127.188 167.669 111.533 165.737 91.169C164.828 81.6147 167.055 70.6699 173.76 63.3809C176.351 60.5774 180.101 57.5048 184.17 57.6618C188.238 57.8188 191.465 60.4204 193.67 63.4706C198.443 70.1317 198.489 79.3943 196.648 87.0198C194.443 96.2152 189.874 104.581 183.897 111.937C171.532 127.21 153.827 137.864 136.076 146.027C115.461 155.492 92.8689 161.772 69.9585 159.91C50.9801 158.363 31.9336 150.737 18.2283 137.527C14.7508 134.185 11.6597 130.485 8.95502 126.515C7.20492 123.958 -1.90924 127.009 0.227247 130.148H0.318161V130.126Z" fill="#170F49"/>
</g>
<defs>
<clipPath id="clip0_120_494">
<rect width="400" height="165.517" fill="white"/>
</clipPath>
</defs>
</svg>
