<svg width="114" height="114" viewBox="0 0 114 114" fill="none" xmlns="http://www.w3.org/2000/svg">
<circle opacity="0.4" cx="56.5643" cy="56.5645" r="40" transform="rotate(44.3142 56.5643 56.5645)" fill="#79DD97"/>
<circle opacity="0.5" cx="56.5643" cy="56.5651" r="29.4737" transform="rotate(44.3142 56.5643 56.5651)" fill="#79DD97"/>
<g clip-path="url(#clip0_120_622)">
<path d="M57.5943 48.5481C58.6425 45.5128 59.3839 41.5855 56.905 38.9958C54.2494 36.2184 49.6802 37.2649 46.8992 39.2258C40.4972 43.7353 41.268 52.8353 43.7051 59.3232C45.2043 63.3125 47.6554 67.089 47.6236 71.4797C47.6183 72.0674 49.2773 72.16 49.2785 71.5971C49.3016 68.02 47.717 64.7741 46.2973 61.5721C44.8776 58.37 43.8572 55.1181 43.6208 51.6566C43.3843 48.1951 43.9272 44.7408 45.9912 41.982C47.0152 40.6195 48.386 39.4991 49.951 38.8082C51.2974 38.2164 52.9648 37.8141 54.3587 38.4963C56.0165 39.3047 56.801 41.2175 56.9073 42.9572C57.0136 44.697 56.5929 46.5385 56.0149 48.2122C55.7993 48.8364 57.4245 49.0396 57.5943 48.5481Z" fill="white"/>
<path d="M57.6171 48.635C60.1684 46.3982 63.5238 45.0636 66.9176 44.8514C68.5561 44.7492 70.2223 44.9228 71.7775 45.4687C72.166 45.6028 72.5503 45.7618 72.9187 45.9414C73.2296 46.0968 73.7998 46.3025 74.027 46.5731C74.2542 46.8436 74.3949 47.3901 74.4928 47.7426C74.6136 48.1686 74.6647 48.6055 74.649 49.0454C74.5894 50.706 73.5296 52.1086 72.3403 53.1869C71.0438 54.3592 69.5383 55.2847 68.0293 56.1565C66.2249 57.1971 64.3649 58.1443 62.5734 59.2111C60.7819 60.278 58.9224 61.4654 57.1544 62.6802C53.2845 65.3392 49.6207 68.2791 46.1765 71.4607C45.6221 71.9723 47.1921 72.3355 47.5785 71.9798C50.8176 68.985 54.2556 66.203 57.875 63.6714C59.7567 62.3562 61.6863 61.1056 63.6534 59.9247C65.6205 58.7438 67.5635 57.7598 69.4958 56.6412C71.1103 55.7053 72.7333 54.7069 74.073 53.3967C75.2658 52.2322 76.3012 50.7601 76.3103 49.0297C76.3113 48.1873 76.096 47.043 75.5681 46.3586C75.3295 46.0447 74.8773 45.8405 74.5339 45.6521C74.1096 45.4182 73.6719 45.2103 73.2248 45.0297C71.4822 44.3143 69.5863 44.0045 67.7139 43.9955C63.5927 43.9739 59.3285 45.3964 56.223 48.1186C55.6622 48.6105 57.2282 48.9854 57.625 48.6377L57.6171 48.635Z" fill="white"/>
</g>
<defs>
<clipPath id="clip0_120_622">
<rect width="33.3333" height="35.2201" fill="white" transform="translate(46.2432 34.6897) rotate(19.0524)"/>
</clipPath>
</defs>
</svg>
