<svg width="78" height="85" viewBox="0 0 78 85" fill="none" xmlns="http://www.w3.org/2000/svg">
<g clip-path="url(#clip0_120_222)">
<path d="M27.325 29.637C40.0479 26.6382 52.7707 23.6394 65.4936 20.6407C69.1017 19.7879 72.7196 18.953 76.3191 18.0524C76.8134 17.933 77.3083 17.5276 76.8759 17.0475C76.4435 16.5674 75.4223 16.6083 74.8505 16.7352C62.0848 19.5709 49.3761 22.7018 36.6533 25.7006L25.7992 28.2579C25.282 28.3782 24.7701 28.8163 25.2212 29.3094C25.6724 29.8025 26.7422 29.7757 27.3409 29.6341L27.325 29.637Z" fill="#170F49"/>
<path d="M74.3675 17.1519C69.946 31.6103 65.3857 46.0282 60.6816 60.3966C59.3409 64.5018 57.9793 68.6009 56.6177 72.6999C56.2561 73.7844 59.1003 74.0267 59.3942 73.1485C64.1816 58.8043 68.8232 44.4176 73.328 29.9835C74.6132 25.8622 75.8866 21.7299 77.151 17.6024C77.4868 16.5029 74.6386 16.2745 74.3745 17.1539L74.3675 17.1519Z" fill="#170F49"/>
<path d="M25.1788 28.9657C34.3267 40.0021 42.0304 52.1158 49.9399 64.0411C52.1581 67.3845 54.4011 70.7201 56.6931 74.0172C57.0586 74.5457 57.8676 74.6386 58.4619 74.5634C58.7581 74.5293 59.8563 74.2246 59.4908 73.6962C51.2473 61.8317 43.7037 49.4784 35.1392 37.8366C32.7437 34.5845 30.2704 31.3926 27.6904 28.2826C27.1103 27.5861 24.3224 27.9251 25.1808 28.9588L25.1788 28.9657Z" fill="#170F49"/>
<path d="M74.3028 16.7032C63.9129 23.1166 53.6255 29.6953 43.4445 36.4256C40.5426 38.3431 37.6505 40.2785 34.7634 42.2228C34.2011 42.6011 34.8926 43.0965 35.2614 43.2267C35.8899 43.4477 36.6907 43.3876 37.244 43.0143C47.369 36.1923 57.5934 29.5198 67.9271 23.0148C70.8703 21.1622 73.8254 19.3205 76.7854 17.4878C77.3735 17.1246 76.6354 16.608 76.2875 16.4839C75.6382 16.2568 74.8818 16.3449 74.3048 16.6963L74.3028 16.7032Z" fill="#170F49"/>
<path d="M70.6832 17.5681C63.0649 26.59 55.6245 35.7768 48.3957 45.1157C46.343 47.7629 44.309 50.4231 42.2869 53.0943C41.8967 53.6056 42.9715 53.9493 43.278 54.0086C43.8585 54.1102 44.6802 54.0561 45.0704 53.5449C52.1953 44.1229 59.5111 34.847 67.0276 25.7352C69.1605 23.149 71.3032 20.5808 73.4667 18.0186C73.8827 17.5224 72.7544 17.1555 72.4756 17.1043C71.8653 17.0016 71.1061 17.0738 70.6832 17.5681Z" fill="#170F49"/>
<path d="M42.166 52.3738C39.4509 54.632 36.6294 56.7386 33.8424 58.9079C33.3466 59.2905 33.9262 59.7307 34.3109 59.858C34.9087 60.055 35.6647 60.0195 36.1931 59.654C39.0936 57.6382 41.8503 55.3922 44.5653 53.134C45.0533 52.7266 44.4925 52.2994 44.087 52.166C43.5219 51.9861 42.6539 51.9664 42.166 52.3738Z" fill="#170F49"/>
<path d="M35.3332 43.4967C34.3186 49.3238 33.1302 55.1529 32.3368 61.0219C32.2136 61.9349 34.8808 62.0352 35.0827 61.0849C36.3067 55.2888 37.1518 49.3972 38.1615 43.5611C38.3174 42.6652 35.5097 42.4787 35.3332 43.4967Z" fill="#170F49"/>
<path d="M36.9782 61.171C38.4651 60.4374 39.9795 59.7646 41.5214 59.1525C43.0633 58.5404 44.5953 58.0911 46.1887 57.5091C46.6625 57.331 46.7157 56.8645 46.3209 56.5912C45.8203 56.2418 45.0784 56.2287 44.5095 56.3715C42.8297 56.7852 41.1724 57.4314 39.5648 58.062C37.9573 58.6926 36.4657 59.3646 34.9609 60.108C34.7766 60.1974 34.5293 60.3738 34.529 60.6071C34.5287 60.8405 34.7601 61.0285 34.9423 61.1269C35.5077 61.4349 36.3965 61.4608 36.9851 61.173L36.9782 61.171Z" fill="#170F49"/>
<path d="M40.5593 57.8548C41.6162 57.3045 42.6779 56.7632 43.7368 56.206C43.9072 56.1126 44.1305 55.9669 44.1357 55.7425C44.1409 55.5181 43.9263 55.35 43.7559 55.2626C43.4667 55.118 43.1344 55.0437 42.8166 55.0488C42.4987 55.054 42.1539 55.0739 41.869 55.2243C40.8003 55.7636 39.7365 56.3118 38.6727 56.86C38.4954 56.9514 38.2701 57.1041 38.2649 57.3285C38.2597 57.5529 38.4792 57.73 38.6496 57.8173C38.9388 57.9619 39.278 58.0383 39.6028 58.0352C39.9276 58.032 40.2744 58.0052 40.5593 57.8548Z" fill="#170F49"/>
<path d="M37.0363 58.2351L36.75 58.2872C36.4318 58.345 36.9568 58.2496 36.7022 58.2958L37.9791 59.4441C39.8088 58.336 41.6778 57.2997 43.5685 56.2923C43.7389 56.1989 43.9622 56.0531 43.9674 55.8287C43.9726 55.6043 43.758 55.4362 43.5877 55.3489C43.0558 55.0807 42.2436 55.0246 41.6938 55.3085C39.7904 56.2821 37.9292 57.3433 36.1044 58.4603C35.9569 58.5529 35.6879 58.7003 35.7055 58.9239C35.7194 59.1087 35.8339 59.2325 35.9843 59.3366C36.4751 59.6681 37.1505 59.6768 37.7084 59.5459C37.9262 59.4964 38.1399 59.4609 38.3487 59.4164C38.7415 59.3351 39.2902 58.9002 38.8454 58.5144C38.356 58.1005 37.6179 58.1262 37.0293 58.2331L37.0363 58.2351Z" fill="#170F49"/>
<path d="M42.2535 57.3398C43.048 56.6302 43.8426 55.9206 44.6203 55.191C44.7681 55.0458 44.8624 54.8775 44.7722 54.6704C44.682 54.4633 44.365 54.3106 44.1567 54.2499C43.8236 54.1526 43.4603 54.1069 43.1144 54.1566C42.8321 54.1948 42.5189 54.2616 42.2973 54.453C41.484 55.1496 40.6923 55.8752 39.8958 56.5917C39.741 56.7349 39.6517 56.9122 39.7419 57.1192C39.8321 57.3263 40.156 57.4811 40.3643 57.5418C40.7044 57.641 41.0746 57.6888 41.4225 57.6321C41.7048 57.594 42.0319 57.5313 42.2555 57.3329L42.2535 57.3398Z" fill="#170F49"/>
<path d="M42.3659 55.5876C42.6071 56.155 42.8483 56.7225 43.1053 57.287C43.1594 57.3857 43.2404 57.4695 43.3454 57.5228C43.4562 57.6078 43.582 57.6671 43.7208 57.7076C43.8874 57.7562 44.0511 57.7889 44.2209 57.8008C44.4025 57.8236 44.5833 57.8237 44.7632 57.8008L45.0903 57.7381C45.2693 57.6924 45.4336 57.6198 45.5802 57.5045L45.7162 57.3483C45.7804 57.2315 45.785 57.1123 45.7231 56.9888C45.4979 56.4185 45.2567 55.851 45.0204 55.2926C44.9614 55.185 44.8853 55.1101 44.7804 55.0568C44.6696 54.9718 44.5368 54.9105 44.398 54.87C44.2314 54.8214 44.0608 54.7867 43.891 54.7748C43.7094 54.7519 43.5286 54.7519 43.3418 54.7727L43.0147 54.8354C42.8356 54.8811 42.6693 54.9606 42.5178 55.067L42.3728 55.2281C42.3066 55.3519 42.302 55.4711 42.3639 55.5945L42.3659 55.5876Z" fill="#170F49"/>
<path d="M13.0806 35.8897L8.92025 38.1706C8.74989 38.264 8.52863 38.4028 8.52341 38.6272C8.52224 38.8378 8.73279 39.0197 8.89822 39.0981C9.1805 39.2407 9.50587 39.313 9.82373 39.3078C10.1416 39.3027 10.4843 39.2897 10.7553 39.1353L14.9226 36.8564C15.0929 36.763 15.3142 36.6242 15.3194 36.3998C15.3206 36.1893 15.11 36.0073 14.9446 35.929C14.6623 35.7864 14.337 35.714 14.0191 35.7192C13.7012 35.7244 13.3585 35.7374 13.0875 35.8918L13.0806 35.8897Z" fill="#170F49"/>
<path d="M21.6535 44.5591L14.066 48.7247C13.8957 48.8181 13.6744 48.9569 13.6672 49.1882C13.666 49.3988 13.8765 49.5807 14.0469 49.6681C14.5649 49.9321 15.3958 50.0013 15.9248 49.7113L23.5192 45.5477C23.6896 45.4543 23.9128 45.3086 23.9181 45.0842C23.9212 44.8667 23.7087 44.6917 23.5383 44.6044C23.0203 44.3403 22.1825 44.269 21.6514 44.566L21.6535 44.5591Z" fill="#170F49"/>
<path d="M37.9959 65.3763C35.5741 66.8615 33.1504 68.3535 30.7356 69.8407C30.5632 69.941 30.337 70.0709 30.3367 70.3043C30.3335 70.5217 30.553 70.6988 30.7164 70.7841C31.2156 71.0352 32.098 71.1344 32.6103 70.8245C35.039 69.3413 37.4627 67.8493 39.8845 66.3641C40.0589 66.2569 40.283 66.134 40.2923 65.8957C40.2955 65.6782 40.078 65.4942 39.9077 65.4069C39.4015 65.1538 38.5122 65.0525 37.9999 65.3624L37.9959 65.3763Z" fill="#170F49"/>
<path d="M53.7905 76.7627C51.4416 77.998 49.0997 79.2353 46.7509 80.4706C46.5805 80.564 46.3503 80.7077 46.3451 80.9321C46.3398 81.1565 46.5594 81.3335 46.7317 81.4139C47.2636 81.6821 48.0827 81.7403 48.6325 81.4563C50.9883 80.2231 53.3372 78.9878 55.686 77.7526C55.8633 77.6612 56.0886 77.5085 56.0938 77.2841C56.0991 77.0597 55.8795 76.8826 55.7092 76.7953C55.1704 76.5251 54.3444 76.4649 53.7925 76.7558L53.7905 76.7627Z" fill="#170F49"/>
</g>
<defs>
<clipPath id="clip0_120_222">
<rect width="60" height="70.6452" fill="white" transform="translate(19.7852) rotate(16.2642)"/>
</clipPath>
</defs>
</svg>
