<svg width="33" height="23" viewBox="0 0 33 23" fill="none" xmlns="http://www.w3.org/2000/svg">
<g clip-path="url(#clip0_120_343)">
<path d="M9.71956 4.20452L9.5236 4.5693L7.28964 6.16279L7.40721 6.10519L5.19284 6.68115H5.33002L3.3508 6.62355C2.48857 6.50836 2.17503 6.0284 2.44937 5.20285C3.27241 4.5693 3.44878 4.39651 2.95888 4.70369L8.83774 3.93574C8.60258 3.82055 8.54379 3.82055 8.68097 3.93574C8.81814 4.05093 8.77895 4.03173 8.58298 3.83975C8.38702 3.43658 8.58298 4.01254 8.44581 3.51337L0.489755 6.20118C0.666121 6.35477 0.705313 6.37397 0.587736 6.27798C0.391774 6.12439 0.41137 5.9132 0.626928 5.60602L8.34783 4.10853C8.54379 4.37731 8.32823 3.91654 8.30864 3.82055C8.34783 4.10853 8.30864 3.80135 8.34783 3.64776C8.40662 3.39818 8.34783 3.20619 8.34783 3.51337C8.5242 3.28299 8.5242 3.26379 8.34783 3.45577C8.21066 3.62856 8.03429 3.74375 7.83833 3.83975L5.64356 4.5693C5.4084 4.60769 5.17325 4.60769 4.93809 4.5885C4.76173 4.5885 4.21303 4.37731 4.76173 4.60769C5.01648 4.72289 5.19284 4.83808 5.52598 5.22205C6.74094 6.60436 7.03489 8.9082 7.23085 10.6937C7.42681 12.4791 7.30923 14.2262 6.87812 16.0309C6.76054 16.4917 6.62336 16.9716 6.447 17.4132C6.38821 17.586 6.30983 17.7396 6.25104 17.8932C5.95709 18.6035 6.4666 17.5668 6.07467 18.2387C5.85911 18.6035 5.66315 18.9875 5.428 19.3523C5.29082 19.5635 5.13405 19.7746 4.97728 19.9666C4.8989 20.0626 4.3894 20.6194 4.80092 20.1778C4.3894 20.6002 3.8407 21.1761 4.01707 21.8289C4.19344 22.4433 4.97728 22.7888 5.54557 22.8848C7.38762 23.2112 9.66078 22.6544 11.0913 21.4257C15.6376 17.5284 16.4215 11.308 15.0497 5.79801C14.697 4.39651 14.1091 2.87981 13.0509 1.82389C11.6596 0.441584 9.60199 -0.0959783 7.60318 1.49868e-05C5.15365 0.134406 2.25341 1.07514 0.764102 3.1486C-0.176516 4.4733 -0.294093 5.9324 0.626928 7.29551C1.2932 8.29384 3.58595 8.02506 4.46778 7.85227C5.81992 7.58349 7.54439 6.98833 8.32823 5.79801C8.91612 4.91487 9.0337 3.78215 8.17146 3.0334C6.87812 1.91988 4.68334 2.28466 3.21363 2.76462C2.13584 3.1294 -0.215708 4.18532 0.195812 5.70202C1.35199 10.0409 8.58298 8.17865 10.327 5.16446C11.2481 3.57097 10.0331 2.49584 8.485 2.20786C7.03488 1.91988 5.36921 2.22706 4.03667 2.82222C3.05686 3.24459 1.56755 4.03173 1.43037 5.24125C1.25401 7.02673 3.72313 7.16112 5.01648 6.98833C6.09427 6.83474 7.23085 6.54676 8.15187 5.9516C8.73975 5.56763 9.64118 4.99167 9.71956 4.24292V4.20452Z" fill="#79DD97"/>
<path d="M27.0233 4.20452L26.8273 4.5693L24.5933 6.16279L24.7109 6.10519L22.4966 6.68115H22.6337L20.6545 6.62355C19.7923 6.50836 19.4787 6.0284 19.7531 5.20285C20.5761 4.5693 20.7525 4.39651 20.2626 4.70369L26.1414 3.93574C25.9063 3.82055 25.8475 3.82055 25.9847 3.93574C26.1219 4.05093 26.0827 4.03173 25.8867 3.83975C25.6907 3.43658 25.8867 4.01254 25.7495 3.51337L17.7543 6.20118C17.9306 6.35477 17.9698 6.37397 17.8523 6.27798C17.6563 6.12439 17.6759 5.9132 17.8914 5.60602L25.6123 4.10853C25.8083 4.37731 25.5928 3.91654 25.5732 3.82055C25.6124 4.10853 25.5732 3.80135 25.6123 3.64776C25.6711 3.39818 25.6123 3.20619 25.6123 3.51337C25.7887 3.28299 25.7887 3.26379 25.6123 3.45577C25.4752 3.62856 25.2988 3.74375 25.1028 3.83975L22.9081 4.5693C22.6729 4.60769 22.4378 4.60769 22.2026 4.5885C22.0262 4.5885 21.4776 4.37731 22.0262 4.60769C22.281 4.72289 22.4574 4.83808 22.7905 5.22205C24.0055 6.60436 24.2994 8.9082 24.4954 10.6937C24.6913 12.4791 24.5738 14.2262 24.1426 16.0309C24.0251 16.4917 23.8879 16.9716 23.7115 17.4132C23.6527 17.586 23.5743 17.7396 23.5156 17.8932C23.2216 18.6035 23.7311 17.5668 23.3392 18.2387C23.1236 18.6035 22.9277 18.9875 22.6925 19.3523C22.5553 19.5635 22.3986 19.7746 22.2418 19.9666C22.1634 20.0626 21.6539 20.6194 22.0654 20.1778C21.6539 20.6002 21.1052 21.1761 21.2816 21.8289C21.458 22.4433 22.2418 22.7888 22.8101 22.8848C24.6521 23.2112 26.9253 22.6544 28.3558 21.4257C32.9021 17.5284 33.686 11.308 32.3142 5.79801C31.9615 4.39651 31.3736 2.87981 30.3154 1.82389C28.9437 0.441584 26.8861 -0.0959783 24.9069 1.49868e-05C22.4378 0.134406 19.5571 1.05594 18.0678 3.1486C17.1272 4.4733 17.0096 5.9324 17.9306 7.29551C18.5969 8.29384 20.8897 8.02506 21.7715 7.85227C23.1236 7.58349 24.8481 6.98833 25.6319 5.79801C26.2198 4.91487 26.3374 3.78215 25.4752 3.0334C24.1818 1.91988 21.9871 2.28466 20.5173 2.76462C19.42 3.1294 17.0684 4.18532 17.4603 5.70202C18.6165 10.0409 25.8475 8.17865 27.5916 5.16446C28.5126 3.57097 27.2976 2.49584 25.7495 2.20786C24.2994 1.91988 22.6337 2.22706 21.3012 2.82222C20.3214 3.24459 18.8321 4.03173 18.6949 5.24125C18.5185 7.02673 20.9876 7.16112 22.281 6.98833C23.3588 6.83474 24.4954 6.54676 25.4164 5.9516C26.0043 5.56763 26.9057 4.99167 26.9841 4.24292L27.0233 4.20452Z" fill="#79DD97"/>
</g>
<defs>
<clipPath id="clip0_120_343">
<rect width="33" height="23" fill="white"/>
</clipPath>
</defs>
</svg>
