<svg width="26" height="24" viewBox="0 0 26 24" fill="none" xmlns="http://www.w3.org/2000/svg">
<path d="M12.0486 0.927068C12.3479 0.00575697 13.6514 0.00575572 13.9507 0.927066L16.1428 7.67378C16.2767 8.0858 16.6607 8.36476 17.0939 8.36476H24.1878C25.1565 8.36476 25.5593 9.60438 24.7756 10.1738L19.0365 14.3435C18.686 14.5981 18.5394 15.0495 18.6732 15.4615L20.8654 22.2082C21.1647 23.1295 20.1102 23.8957 19.3265 23.3263L13.5874 19.1566C13.237 18.9019 12.7624 18.9019 12.4119 19.1566L6.67277 23.3263C5.88906 23.8957 4.83458 23.1295 5.13393 22.2082L7.32607 15.4615C7.45994 15.0495 7.31328 14.5981 6.9628 14.3435L1.2237 10.1738C0.439988 9.60438 0.842763 8.36476 1.81149 8.36476H8.9054C9.33862 8.36476 9.72258 8.0858 9.85645 7.67378L12.0486 0.927068Z" fill="#FFD646"/>
</svg>
