<svg width="110" height="110" viewBox="0 0 110 110" fill="none" xmlns="http://www.w3.org/2000/svg">
<path d="M38.4572 56.1246L39.8714 54.7104L38.4572 53.2962L20.7796 35.6185C16.6816 31.5206 16.6816 24.8673 20.7796 20.7693C24.8775 16.6713 31.5308 16.6713 35.6288 20.7693L53.3065 38.447L54.7207 39.8612L56.1349 38.447L73.8126 20.7693C77.9106 16.6713 84.5638 16.6713 88.6618 20.7693C92.7598 24.8673 92.7598 31.5205 88.6618 35.6185L70.9841 53.2962L69.5699 54.7104L70.9841 56.1246L88.6618 73.8023C92.7598 77.9003 92.7598 84.5536 88.6618 88.6515C84.5638 92.7495 77.9105 92.7495 73.8126 88.6516L56.1349 70.9739L54.7207 69.5597L53.3065 70.9739L35.6288 88.6516C31.5308 92.7495 24.8775 92.7495 20.7795 88.6516C16.6816 84.5536 16.6816 77.9003 20.7795 73.8023L38.4572 56.1246Z" stroke="#79DD97" stroke-width="4"/>
<path d="M0 55C0 47.41 6.16001 41.25 13.75 41.25H41.25V13.75C41.25 6.16 47.41 0 55 0C62.59 0 68.75 6.16 68.75 13.75V41.25H96.25C103.84 41.25 110 47.41 110 55C110 62.59 103.84 68.75 96.25 68.75H68.75V96.25C68.75 103.84 62.59 110 55 110C47.41 110 41.25 103.84 41.25 96.25V68.75H13.75C6.16001 68.75 0 62.59 0 55Z" fill="#7EA2E4"/>
</svg>
