<svg width="753" height="195" viewBox="0 0 753 195" fill="none" xmlns="http://www.w3.org/2000/svg">
<path d="M245.03 157.24C236.177 157.24 227.964 155.853 220.39 153.08C212.924 150.2 206.417 146.147 200.87 140.92C195.43 135.693 191.164 129.56 188.07 122.52C184.977 115.373 183.43 107.533 183.43 99C183.43 90.4667 184.977 82.68 188.07 75.64C191.164 68.4933 195.43 62.3067 200.87 57.08C206.417 51.8533 212.924 47.8533 220.39 45.08C227.964 42.2 236.177 40.76 245.03 40.76C255.377 40.76 264.604 42.5733 272.71 46.2C280.924 49.8267 287.75 55.0533 293.19 61.88L273.03 80.12C269.404 75.8533 265.404 72.6 261.03 70.36C256.764 68.12 251.964 67 246.63 67C242.044 67 237.83 67.7467 233.99 69.24C230.15 70.7333 226.844 72.92 224.07 75.8C221.404 78.5733 219.27 81.9333 217.67 85.88C216.177 89.8267 215.43 94.2 215.43 99C215.43 103.8 216.177 108.173 217.67 112.12C219.27 116.067 221.404 119.48 224.07 122.36C226.844 125.133 230.15 127.267 233.99 128.76C237.83 130.253 242.044 131 246.63 131C251.964 131 256.764 129.88 261.03 127.64C265.404 125.4 269.404 122.147 273.03 117.88L293.19 136.12C287.75 142.84 280.924 148.067 272.71 151.8C264.604 155.427 255.377 157.24 245.03 157.24ZM305.875 155V36.28H336.275V155H305.875ZM356.031 155V68.28H386.431V155H356.031ZM371.231 58.68C365.685 58.68 361.205 57.1333 357.791 54.04C354.378 50.9467 352.671 47.1067 352.671 42.52C352.671 37.9333 354.378 34.0933 357.791 31C361.205 27.9067 365.685 26.36 371.231 26.36C376.778 26.36 381.258 27.8533 384.671 30.84C388.085 33.72 389.791 37.4533 389.791 42.04C389.791 46.84 388.085 50.84 384.671 54.04C381.365 57.1333 376.885 58.68 371.231 58.68ZM462.668 66.84C469.388 66.84 475.468 68.2267 480.908 71C486.348 73.6667 490.614 77.8267 493.708 83.48C496.908 89.1333 498.508 96.44 498.508 105.4V155H468.108V110.36C468.108 104.173 466.828 99.6933 464.268 96.92C461.814 94.04 458.348 92.6 453.868 92.6C450.668 92.6 447.734 93.3467 445.068 94.84C442.401 96.2267 440.321 98.4133 438.828 101.4C437.334 104.387 436.588 108.28 436.588 113.08V155H406.188V68.28H435.148V92.92L429.548 85.72C432.854 79.4267 437.388 74.7333 443.148 71.64C448.908 68.44 455.414 66.84 462.668 66.84ZM517.594 155V68.28H547.994V155H517.594ZM532.794 58.68C527.247 58.68 522.767 57.1333 519.354 54.04C515.941 50.9467 514.234 47.1067 514.234 42.52C514.234 37.9333 515.941 34.0933 519.354 31C522.767 27.9067 527.247 26.36 532.794 26.36C538.341 26.36 542.821 27.8533 546.234 30.84C549.647 33.72 551.354 37.4533 551.354 42.04C551.354 46.84 549.647 50.84 546.234 54.04C542.927 57.1333 538.447 58.68 532.794 58.68ZM612.07 156.44C602.47 156.44 593.884 154.52 586.31 150.68C578.844 146.84 572.977 141.56 568.71 134.84C564.444 128.013 562.31 120.227 562.31 111.48C562.31 102.733 564.444 95 568.71 88.28C572.977 81.56 578.844 76.3333 586.31 72.6C593.884 68.76 602.47 66.84 612.07 66.84C621.884 66.84 630.364 68.92 637.51 73.08C644.657 77.24 649.724 83.1067 652.71 90.68L629.19 102.68C627.164 98.6267 624.657 95.6933 621.67 93.88C618.684 91.96 615.43 91 611.91 91C608.39 91 605.19 91.8 602.31 93.4C599.43 95 597.137 97.3467 595.43 100.44C593.83 103.427 593.03 107.107 593.03 111.48C593.03 115.96 593.83 119.747 595.43 122.84C597.137 125.933 599.43 128.28 602.31 129.88C605.19 131.48 608.39 132.28 611.91 132.28C615.43 132.28 618.684 131.373 621.67 129.56C624.657 127.64 627.164 124.653 629.19 120.6L652.71 132.6C649.724 140.173 644.657 146.04 637.51 150.2C630.364 154.36 621.884 156.44 612.07 156.44ZM652.201 155L692.041 102.68L691.401 119.96L653.161 68.28H687.401L708.841 98.84L696.041 99.48L718.761 68.28H750.921L712.681 118.84V102.2L752.041 155H717.321L694.921 122.36L707.721 124.12L685.161 155H652.201Z" fill="#79DD97"/>
<path d="M54.767 96.7675L56.5348 94.9997L54.767 93.232L29.767 68.232C23.8433 62.3083 23.8433 52.6912 29.767 46.7675C35.6907 40.8438 45.3078 40.8438 51.2315 46.7675L76.2315 71.7675L77.9992 73.5353L79.767 71.7675L104.767 46.7675C110.691 40.8438 120.308 40.8438 126.231 46.7675C132.155 52.6912 132.155 62.3082 126.231 68.2319L101.231 93.2319L99.4637 94.9997L101.231 96.7675L126.231 121.767C132.155 127.691 132.155 137.308 126.231 143.232C120.308 149.156 110.691 149.156 104.767 143.232L79.767 118.232L77.9992 116.464L76.2314 118.232L51.2315 143.232C45.3078 149.156 35.6907 149.156 29.767 143.232C23.8433 137.308 23.8433 127.691 29.767 121.767L54.767 96.7675Z" stroke="#79DD97" stroke-width="5"/>
<path d="M0.613281 95.4087C0.613281 84.6748 9.32484 75.9633 20.0587 75.9633H58.9496V37.0724C58.9496 26.3385 67.6612 17.627 78.395 17.627C89.1289 17.627 97.8405 26.3385 97.8405 37.0724V75.9633H136.731C147.465 75.9633 156.177 84.6748 156.177 95.4087C156.177 106.143 147.465 114.854 136.731 114.854H97.8405V153.745C97.8405 164.479 89.1289 173.19 78.395 173.19C67.6612 173.19 58.9496 164.479 58.9496 153.745V114.854H20.0587C9.32484 114.854 0.613281 106.143 0.613281 95.4087Z" fill="#7EA2E4"/>
</svg>
